<?xml version="1.0" encoding="UTF-8"?>
<!DOCTYPE svg PUBLIC "-//W3C//DTD SVG 1.1//EN" "http://www.w3.org/Graphics/SVG/1.1/DTD/svg11.dtd">
<svg xmlns="http://www.w3.org/2000/svg" version="1.1" width="672px" height="168px" style="shape-rendering:geometricPrecision; text-rendering:geometricPrecision; image-rendering:optimizeQuality; fill-rule:evenodd; clip-rule:evenodd" xmlns:xlink="http://www.w3.org/1999/xlink">
<g><path style="opacity:0.004" fill="#000000" d="M 218.5,2.5 C 219.833,3.16667 219.833,3.16667 218.5,2.5 Z"/></g>
<g><path style="opacity:0.004" fill="#000000" d="M 563.5,3.5 C 564.833,4.16667 564.833,4.16667 563.5,3.5 Z"/></g>
<g><path style="opacity:0.004" fill="#000000" d="M 266.5,4.5 C 267.833,5.16667 267.833,5.16667 266.5,4.5 Z"/></g>
<g><path style="opacity:0.004" fill="#000000" d="M 344.5,4.5 C 345.833,5.16667 345.833,5.16667 344.5,4.5 Z"/></g>
<g><path style="opacity:0.004" fill="#000000" d="M 461.5,4.5 C 462.833,5.16667 462.833,5.16667 461.5,4.5 Z"/></g>
<g><path style="opacity:0.004" fill="#000000" d="M 437.5,5.5 C 438.833,6.16667 438.833,6.16667 437.5,5.5 Z"/></g>
<g><path style="opacity:0.004" fill="#000000" d="M 455.5,8.5 C 456.833,9.16667 456.833,9.16667 455.5,8.5 Z"/></g>
<g><path style="opacity:0.004" fill="#000000" d="M 401.5,10.5 C 402.833,11.1667 402.833,11.1667 401.5,10.5 Z"/></g>
<g><path style="opacity:0.004" fill="#000000" d="M 236.5,11.5 C 237.833,12.1667 237.833,12.1667 236.5,11.5 Z"/></g>
<g><path style="opacity:0.004" fill="#000000" d="M 398.5,20.5 C 399.833,21.1667 399.833,21.1667 398.5,20.5 Z"/></g>
<g><path style="opacity:0.004" fill="#000000" d="M 500.5,22.5 C 501.833,23.1667 501.833,23.1667 500.5,22.5 Z"/></g>
<g><path style="opacity:0.004" fill="#000000" d="M 563.5,23.5 C 564.833,24.1667 564.833,24.1667 563.5,23.5 Z"/></g>
<g><path style="opacity:0.004" fill="#000000" d="M 176.5,25.5 C 177.833,26.1667 177.833,26.1667 176.5,25.5 Z"/></g>
<g><path style="opacity:0.004" fill="#000000" d="M 638.5,25.5 C 639.833,26.1667 639.833,26.1667 638.5,25.5 Z"/></g>
<g><path style="opacity:0.004" fill="#000000" d="M 2.5,26.5 C 3.83333,27.1667 3.83333,27.1667 2.5,26.5 Z"/></g>
<g><path style="opacity:0.004" fill="#000000" d="M 572.5,26.5 C 573.833,27.1667 573.833,27.1667 572.5,26.5 Z"/></g>
<g><path style="opacity:0.004" fill="#000000" d="M 173.5,27.5 C 174.833,28.1667 174.833,28.1667 173.5,27.5 Z"/></g>
<g><path style="opacity:0.004" fill="#000000" d="M 146.5,28.5 C 147.833,29.1667 147.833,29.1667 146.5,28.5 Z"/></g>
<g><path style="opacity:0.004" fill="#000000" d="M 155.5,31.5 C 156.833,32.1667 156.833,32.1667 155.5,31.5 Z"/></g>
<g><path style="opacity:0.004" fill="#000000" d="M 77.5,34.5 C 78.8333,35.1667 78.8333,35.1667 77.5,34.5 Z"/></g>
<g><path style="opacity:0.004" fill="#000000" d="M 611.5,35.5 C 612.833,36.1667 612.833,36.1667 611.5,35.5 Z"/></g>
<g><path style="opacity:0.004" fill="#000000" d="M 278.5,39.5 C 279.833,40.1667 279.833,40.1667 278.5,39.5 Z"/></g>
<g><path style="opacity:0.004" fill="#000000" d="M 368.5,39.5 C 369.833,40.1667 369.833,40.1667 368.5,39.5 Z"/></g>
<g><path style="opacity:0.004" fill="#000000" d="M 431.5,39.5 C 432.833,40.1667 432.833,40.1667 431.5,39.5 Z"/></g>
<g><path style="opacity:0.004" fill="#000000" d="M 191.5,42.5 C 192.833,43.1667 192.833,43.1667 191.5,42.5 Z"/></g>
<g><path style="opacity:0.004" fill="#000000" d="M 443.5,44.5 C 444.833,45.1667 444.833,45.1667 443.5,44.5 Z"/></g>
<g><path style="opacity:0.004" fill="#000000" d="M 584.5,44.5 C 585.833,45.1667 585.833,45.1667 584.5,44.5 Z"/></g>
<g><path style="opacity:0.991" fill="#f3f3f3" d="M 76.5,46.5 C 83.0898,46.189 89.5898,46.5223 96,47.5C 100.193,58.4124 104.193,69.4124 108,80.5C 108.689,81.3567 109.522,82.0233 110.5,82.5C 115.292,70.9606 119.792,59.2939 124,47.5C 130.41,46.5223 136.91,46.189 143.5,46.5C 147.716,71.7979 151.716,97.1313 155.5,122.5C 149.167,122.5 142.833,122.5 136.5,122.5C 134.475,108.823 132.308,95.1564 130,81.5C 125.013,94.4553 120.013,107.455 115,120.5C 111.929,122.768 108.596,123.101 105,121.5C 100.382,108.973 95.3822,96.6392 90,84.5C 87.0454,97.0114 84.8788,109.678 83.5,122.5C 76.6548,122.958 69.9881,122.458 63.5,121C 67.991,96.2222 72.3243,71.3889 76.5,46.5 Z"/></g>
<g><path style="opacity:0.992" fill="#f3f3f3" d="M 162.5,46.5 C 169.167,46.5 175.833,46.5 182.5,46.5C 182.5,71.8333 182.5,97.1667 182.5,122.5C 175.833,122.5 169.167,122.5 162.5,122.5C 162.5,97.1667 162.5,71.8333 162.5,46.5 Z"/></g>
<g><path style="opacity:0.994" fill="#f3f3f3" d="M 193.5,46.5 C 204.172,46.3335 214.839,46.5002 225.5,47C 251.262,53.6628 261.428,70.1628 256,96.5C 250.707,110.742 240.541,119.242 225.5,122C 214.839,122.5 204.172,122.667 193.5,122.5C 193.5,97.1667 193.5,71.8333 193.5,46.5 Z M 213.5,64.5 C 228.122,63.624 236.122,70.4573 237.5,85C 235.701,99.1552 227.868,105.322 214,103.5C 213.573,99.3243 213.073,95.1576 212.5,91C 213.397,82.1917 213.731,73.3583 213.5,64.5 Z"/></g>
<g><path style="opacity:0.984" fill="#f2f2f2" d="M 372.5,46.5 C 378.833,46.5 385.167,46.5 391.5,46.5C 391.5,71.8333 391.5,97.1667 391.5,122.5C 385.167,122.5 378.833,122.5 372.5,122.5C 372.5,97.1667 372.5,71.8333 372.5,46.5 Z"/></g>
<g><path style="opacity:0.983" fill="#f3f3f3" d="M 504.5,46.5 C 511.5,46.5 518.5,46.5 525.5,46.5C 528.406,61.4609 532.24,76.1276 537,90.5C 542.768,76.5338 547.768,62.2005 552,47.5C 557.072,46.5286 562.238,46.1953 567.5,46.5C 572.02,62.2282 576.853,77.8949 582,93.5C 586.477,78.26 590.644,62.9266 594.5,47.5C 601.5,46.1667 608.5,46.1667 615.5,47.5C 608.234,72.1318 601.067,96.7985 594,121.5C 587.256,122.479 580.422,122.812 573.5,122.5C 569.889,109.165 565.389,96.1647 560,83.5C 559.333,84.1667 558.667,84.8333 558,85.5C 554,97.5 550,109.5 546,121.5C 539.256,122.479 532.422,122.812 525.5,122.5C 518.5,97.1667 511.5,71.8333 504.5,46.5 Z"/></g>
<g><path style="opacity:0.997" fill="#f3f3f3" d="M 265.5,46.5 C 272.167,46.5 278.833,46.5 285.5,46.5C 285.5,71.8333 285.5,97.1667 285.5,122.5C 278.833,122.5 272.167,122.5 265.5,122.5C 265.5,97.1667 265.5,71.8333 265.5,46.5 Z"/></g>
<g><path style="opacity:0.993" fill="#f3f3f3" d="M 290.5,46.5 C 297.755,46.1868 304.921,46.5201 312,47.5C 316.333,59.1667 320.667,70.8333 325,82.5C 325.837,84.8442 327.171,86.8442 329,88.5C 334.784,74.987 340.284,61.3203 345.5,47.5C 352.468,46.503 359.468,46.1697 366.5,46.5C 357.166,71.6621 347.333,96.6621 337,121.5C 331.333,122.833 325.667,122.833 320,121.5C 309.667,96.6621 299.834,71.6621 290.5,46.5 Z"/></g>
<g><path style="opacity:0.004" fill="#000000" d="M 5.5,53.5 C 6.83333,54.1667 6.83333,54.1667 5.5,53.5 Z"/></g>
<g><path style="opacity:0.004" fill="#000000" d="M 332.5,58.5 C 333.833,59.1667 333.833,59.1667 332.5,58.5 Z"/></g>
<g><path style="opacity:0.004" fill="#000000" d="M 260.5,64.5 C 261.833,65.1667 261.833,65.1667 260.5,64.5 Z"/></g>
<g><path style="opacity:0.004" fill="#000000" d="M 293.5,66.5 C 294.833,67.1667 294.833,67.1667 293.5,66.5 Z"/></g>
<g><path style="opacity:0.004" fill="#000000" d="M 416.5,70.5 C 417.833,71.1667 417.833,71.1667 416.5,70.5 Z"/></g>
<g><path style="opacity:0.004" fill="#000000" d="M 623.5,81.5 C 624.833,82.1667 624.833,82.1667 623.5,81.5 Z"/></g>
<g><path style="opacity:0.004" fill="#000000" d="M 56.5,93.5 C 57.8333,94.1667 57.8333,94.1667 56.5,93.5 Z"/></g>
<g><path style="opacity:0.004" fill="#000000" d="M 395.5,102.5 C 396.833,103.167 396.833,103.167 395.5,102.5 Z"/></g>
<g><path style="opacity:0.004" fill="#000000" d="M 614.5,104.5 C 615.833,105.167 615.833,105.167 614.5,104.5 Z"/></g>
<g><path style="opacity:1" fill="#57a59a" d="M 437.5,80.5 C 437.62,81.5862 438.287,82.2528 439.5,82.5C 452.774,82.5447 466.107,82.378 479.5,82C 481.708,81.8091 483.708,81.3091 485.5,80.5C 492.755,75.3475 497.755,77.0142 500.5,85.5C 496.885,94.2609 491.218,95.7609 483.5,90C 467.833,89.3333 452.167,89.3333 436.5,90C 431.74,93.2238 431.24,97.0571 435,101.5C 441.863,108.788 450.363,111.788 460.5,110.5C 463.833,110.333 467.167,110.167 470.5,110C 475.515,105.298 480.349,105.464 485,110.5C 487.31,117.311 485.144,121.644 478.5,123.5C 476.045,123.106 474.045,121.94 472.5,120C 464.833,119.667 457.167,119.333 449.5,119C 436.785,116.619 427.952,109.452 423,97.5C 419.414,96.0809 416.581,93.7476 414.5,90.5C 411.223,89.7463 407.89,89.2463 404.5,89C 401.9,86.541 401.9,84.041 404.5,81.5C 407.777,80.7463 411.11,80.2463 414.5,80C 416.732,77.2651 419.399,75.0984 422.5,73.5C 429.216,57.6281 441.216,50.1281 458.5,51C 465.152,45.7311 470.486,46.7311 474.5,54C 474.842,59.6929 472.009,63.1929 466,64.5C 454.822,58.4534 444.489,59.7868 435,68.5C 431.098,73.5525 431.931,77.5525 437.5,80.5 Z"/></g>
<g><path style="opacity:0.836" fill="#5d9790" d="M 485.5,80.5 C 483.708,81.3091 481.708,81.8091 479.5,82C 466.107,82.378 452.774,82.5447 439.5,82.5C 438.287,82.2528 437.62,81.5862 437.5,80.5C 453.642,80.0905 469.642,80.0905 485.5,80.5 Z"/></g>
<g><path style="opacity:0.004" fill="#000000" d="M 560.5,115.5 C 561.833,116.167 561.833,116.167 560.5,115.5 Z"/></g>
<g><path style="opacity:0.004" fill="#000000" d="M 56.5,116.5 C 57.8333,117.167 57.8333,117.167 56.5,116.5 Z"/></g>
<g><path style="opacity:0.004" fill="#000000" d="M 29.5,120.5 C 30.8333,121.167 30.8333,121.167 29.5,120.5 Z"/></g>
<g><path style="opacity:0.004" fill="#000000" d="M 311.5,124.5 C 312.833,125.167 312.833,125.167 311.5,124.5 Z"/></g>
<g><path style="opacity:0.004" fill="#000000" d="M 164.5,125.5 C 165.833,126.167 165.833,126.167 164.5,125.5 Z"/></g>
<g><path style="opacity:0.004" fill="#000000" d="M 266.5,126.5 C 267.833,127.167 267.833,127.167 266.5,126.5 Z"/></g>
<g><path style="opacity:0.004" fill="#000000" d="M 107.5,129.5 C 108.833,130.167 108.833,130.167 107.5,129.5 Z"/></g>
<g><path style="opacity:0.004" fill="#000000" d="M 392.5,132.5 C 393.833,133.167 393.833,133.167 392.5,132.5 Z"/></g>
<g><path style="opacity:0.004" fill="#000000" d="M 107.5,135.5 C 108.833,136.167 108.833,136.167 107.5,135.5 Z"/></g>
<g><path style="opacity:0.004" fill="#000000" d="M 596.5,138.5 C 597.833,139.167 597.833,139.167 596.5,138.5 Z"/></g>
<g><path style="opacity:0.004" fill="#000000" d="M 314.5,141.5 C 315.833,142.167 315.833,142.167 314.5,141.5 Z"/></g>
<g><path style="opacity:0.004" fill="#000000" d="M 653.5,144.5 C 654.833,145.167 654.833,145.167 653.5,144.5 Z"/></g>
<g><path style="opacity:0.004" fill="#000000" d="M 491.5,145.5 C 492.833,146.167 492.833,146.167 491.5,145.5 Z"/></g>
<g><path style="opacity:0.004" fill="#000000" d="M 584.5,149.5 C 585.833,150.167 585.833,150.167 584.5,149.5 Z"/></g>
<g><path style="opacity:0.004" fill="#000000" d="M 287.5,158.5 C 288.833,159.167 288.833,159.167 287.5,158.5 Z"/></g>
<g><path style="opacity:0.004" fill="#000000" d="M 338.5,158.5 C 339.833,159.167 339.833,159.167 338.5,158.5 Z"/></g>
<g><path style="opacity:0.004" fill="#000000" d="M 296.5,159.5 C 297.833,160.167 297.833,160.167 296.5,159.5 Z"/></g>
<g><path style="opacity:0.004" fill="#000000" d="M 452.5,164.5 C 453.833,165.167 453.833,165.167 452.5,164.5 Z"/></g>
<g><path style="opacity:0.004" fill="#000000" d="M 473.5,165.5 C 474.833,166.167 474.833,166.167 473.5,165.5 Z"/></g>
</svg>
